<svg width="24" height="26" viewBox="0 0 24 26" fill="none" xmlns="http://www.w3.org/2000/svg">
<g id="Group 10880720">
<path id="Union" fill-rule="evenodd" clip-rule="evenodd" d="M16.6 9.76562C16.6 13.6868 13.4212 16.8656 9.5 16.8656C5.57878 16.8656 2.4 13.6868 2.4 9.76562C2.4 5.8444 5.57878 2.66563 9.5 2.66563C13.4212 2.66563 16.6 5.8444 16.6 9.76562ZM14.6843 17.7276C13.1936 18.7003 11.4128 19.2656 9.5 19.2656C4.25329 19.2656 0 15.0123 0 9.76562C0 4.51892 4.25329 0.265625 9.5 0.265625C14.7467 0.265625 19 4.51892 19 9.76562C19 12.2349 18.0579 14.4841 16.5135 16.1735L22.9 23.4723C23.3364 23.9711 23.2859 24.7292 22.7871 25.1656C22.2883 25.602 21.5302 25.5515 21.0938 25.0527L14.6843 17.7276Z" fill="#CCCCCC"/>
</g>
</svg>
