<svg width="50" height="51" viewBox="0 0 50 51" fill="none" xmlns="http://www.w3.org/2000/svg">
<g id="Group 10880664">
<g id="Group 10880661">
<g id="Group 10880659">
<circle id="Ellipse 81" cx="25" cy="25.332" r="25" fill="#FF0000"/>
</g>
<path id="Vector (Stroke)" fill-rule="evenodd" clip-rule="evenodd" d="M14.7682 15.0985C15.4197 14.4473 16.3025 14.082 17.2222 14.082H32.7778C33.6975 14.082 34.5803 14.4473 35.2318 15.0985C35.8833 15.7498 36.25 16.634 36.25 17.5567V28.8554C36.2498 29.7779 35.883 30.6622 35.2315 31.3133M35.2315 31.3133L30.9783 35.5652C30.9783 35.5653 30.9784 35.5652 30.9783 35.5652C30.327 36.2164 29.4443 36.5818 28.5247 36.582H17.2222C16.3025 36.582 15.4197 36.2168 14.7682 35.5656C14.1167 34.9142 13.75 34.03 13.75 33.1074V17.5567C13.75 16.634 14.1167 15.7498 14.7682 15.0985M17.2222 16.5883C16.9632 16.5883 16.7156 16.6912 16.5335 16.8732C16.3516 17.0551 16.25 17.301 16.25 17.5567V33.1074C16.25 33.363 16.3516 33.609 16.5335 33.7908C16.7156 33.9728 16.9632 34.0757 17.2222 34.0757H27.0833V30.8858C27.0833 29.9631 27.45 29.079 28.1016 28.4276C28.753 27.7764 29.6358 27.4112 30.5556 27.4112H33.75V17.5567C33.75 17.301 33.6484 17.0551 33.4665 16.8732C33.2844 16.6912 33.0368 16.5883 32.7778 16.5883H17.2222ZM33.0873 29.9175H30.5556C30.2966 29.9175 30.0489 30.0204 29.8668 30.2024C29.6849 30.3842 29.5833 30.6302 29.5833 30.8858V33.4203L33.0873 29.9175ZM18.1944 19.7782C18.1944 19.0861 18.7541 18.5251 19.4444 18.5251H30.5556C31.2459 18.5251 31.8056 19.0861 31.8056 19.7782C31.8056 20.4703 31.2459 21.0314 30.5556 21.0314H19.4444C18.7541 21.0314 18.1944 20.4703 18.1944 19.7782ZM18.1944 24.2213C18.1944 23.5292 18.7541 22.9681 19.4444 22.9681H30.5556C31.2459 22.9681 31.8056 23.5292 31.8056 24.2213C31.8056 24.9134 31.2459 25.4744 30.5556 25.4744H19.4444C18.7541 25.4744 18.1944 24.9134 18.1944 24.2213ZM18.1944 28.6643C18.1944 27.9722 18.7541 27.4112 19.4444 27.4112H23.8889C24.5792 27.4112 25.1389 27.9722 25.1389 28.6643C25.1389 29.3564 24.5792 29.9175 23.8889 29.9175H19.4444C18.7541 29.9175 18.1944 29.3564 18.1944 28.6643Z" fill="white"/>
</g>
</g>
</svg>
