<svg width="43" height="41" viewBox="0 0 43 41" fill="none" xmlns="http://www.w3.org/2000/svg">
<g clip-path="url(#clip0_1087_1418)">
<path d="M12.729 30.8984L15.7181 33.4073L13.0352 34.5811C12.5249 34.8011 11.9854 34.361 12.102 33.8035L12.7144 30.8984H12.729Z" fill="#FF0000"/>
<path d="M31.4951 4.03125L38.6107 9.988L40.6958 7.46445C41.1624 6.90692 41.0895 6.07063 40.5208 5.60113L35.4174 1.33163C34.8633 0.862135 34.0322 0.935494 33.5656 1.50769L31.4805 4.03125H31.4951Z" fill="#FF0000"/>
<path d="M40.4207 5.51247L35.5447 1.43056C34.9257 0.91231 34.0063 0.997151 33.4913 1.62005L14.131 25.0346C13.6159 25.6575 13.7003 26.5826 14.3193 27.1008L19.1952 31.1827C19.8143 31.701 20.7337 31.6161 21.2487 30.9932L40.609 7.5787C41.124 6.9558 41.0397 6.03071 40.4207 5.51247Z" stroke="#FF0000" stroke-width="2.3" stroke-miterlimit="10"/>
<path d="M13.8663 25.5547L12.102 33.8443C11.9854 34.3871 12.5249 34.8273 13.0352 34.6219L20.6612 31.4381" stroke="#FF0000" stroke-width="2.3" stroke-miterlimit="10"/>
<path d="M35.0231 6.99219L16.7383 29.1173" stroke="#FF0000" stroke-width="2.3" stroke-miterlimit="10"/>
<path d="M2 38L40 38" stroke="#FF0000" stroke-width="3" stroke-miterlimit="10" stroke-linecap="round"/>
</g>
<defs>
<clipPath id="clip0_1087_1418">
<rect width="43" height="41" fill="white"/>
</clipPath>
</defs>
</svg>
