<svg width="32" height="25" viewBox="0 0 32 25" fill="none" xmlns="http://www.w3.org/2000/svg">
<path fill-rule="evenodd" clip-rule="evenodd" d="M0 4C0 1.79086 1.79086 0 4 0H27.25C29.4591 0 31.25 1.79086 31.25 4V15.5312C31.25 17.7404 29.4591 19.5312 27.25 19.5312H18.3918L15.2344 25L12.077 19.5312H4C1.79086 19.5312 0 17.7404 0 15.5312V4ZM4.6875 5.46875C4.6875 5.03728 5.03728 4.6875 5.46875 4.6875H25.7812C26.2127 4.6875 26.5625 5.03728 26.5625 5.46875C26.5625 5.90022 26.2127 6.25 25.7812 6.25H5.46875C5.03728 6.25 4.6875 5.90022 4.6875 5.46875ZM5.46875 8.59375C5.03728 8.59375 4.6875 8.94353 4.6875 9.375C4.6875 9.80647 5.03728 10.1562 5.46875 10.1562H25.7812C26.2127 10.1562 26.5625 9.80647 26.5625 9.375C26.5625 8.94353 26.2127 8.59375 25.7812 8.59375H5.46875ZM4.6875 13.2812C4.6875 12.8498 5.03728 12.5 5.46875 12.5H25.7812C26.2127 12.5 26.5625 12.8498 26.5625 13.2812C26.5625 13.7127 26.2127 14.0625 25.7812 14.0625H5.46875C5.03728 14.0625 4.6875 13.7127 4.6875 13.2812Z" fill="#FF0000"/>
</svg>
